<svg width="32" height="32" viewBox="0 0 32 32" fill="none" xmlns="http://www.w3.org/2000/svg">
<path d="M16.0317 0H15.9589C7.14503 0 0 7.14713 0 15.9636V16.0364C0 24.8529 7.14503 32 15.9589 32H16.0317C24.8456 32 31.9906 24.8529 31.9906 16.0364V15.9636C31.9906 7.14713 24.8456 0 16.0317 0Z" fill="#EA4C89"/>
<path d="M26.0312 16.4182C26.0334 16.3834 26.0346 16.3476 26.0357 16.3117L26.0547 15.8666L26.0379 15.8621C26.0054 13.51 25.1671 11.2812 23.6551 9.50091L23.6731 9.48185L23.1967 8.99192C21.2858 7.02884 18.727 5.94809 15.9901 5.94809C14.5846 5.94809 13.2329 6.23173 11.9631 6.78893L11.953 6.78108L11.5406 6.98512C10.9947 7.25531 10.4792 7.57146 9.99836 7.9291C9.67781 8.1679 9.37296 8.42351 9.0838 8.69706C8.9762 8.79909 8.87197 8.90335 8.76886 9.00986C7.35555 10.4707 6.39615 12.3441 6.06552 14.3935L5.95905 15.0572L5.98258 15.0628C5.95344 15.3744 5.93775 15.6895 5.93775 16.0034C5.93775 18.6683 7.00025 21.2233 8.87085 23.1012L8.863 23.1157L9.28218 23.4913C11.1281 25.1461 13.5098 26.0587 15.989 26.0587C16.1649 26.0587 16.3398 26.0542 16.5135 26.0452C17.7329 25.9835 18.9131 25.7033 20.0271 25.2133C20.0271 25.2133 20.0283 25.2133 20.0294 25.2133L20.4654 25.0216V25.0082C23.7101 23.3882 25.8765 20.0775 26.0301 16.4462C26.0301 16.4451 26.0301 16.444 26.0301 16.4429C26.0301 16.4417 26.0301 16.4395 26.0301 16.4384V16.4227L26.0312 16.4182ZM24.5585 16.9675C24.554 17.0034 24.5495 17.0393 24.545 17.0752C24.5372 17.1368 24.5293 17.1985 24.5204 17.259C24.5148 17.2983 24.508 17.3375 24.5013 17.3767C24.4924 17.4339 24.4823 17.4911 24.4722 17.5483C24.4643 17.5898 24.4565 17.6301 24.4475 17.6716C24.4363 17.7265 24.4262 17.7815 24.4139 17.8353C24.4049 17.8768 24.3948 17.9182 24.3848 17.9597C24.3724 18.0135 24.359 18.0662 24.3455 18.1189C24.3343 18.1604 24.3231 18.203 24.3119 18.2445C24.2973 18.2961 24.2828 18.3487 24.2682 18.4003C24.2559 18.4418 24.2435 18.4844 24.2301 18.5259C24.2144 18.5775 24.1976 18.6279 24.1819 18.6795C24.1684 18.721 24.1539 18.7624 24.1393 18.8039C24.1214 18.8544 24.1034 18.9048 24.0855 18.9553C24.0709 18.9956 24.0552 19.0371 24.0396 19.0775C24.0205 19.1279 24.0003 19.1773 23.9802 19.2277C23.9645 19.2681 23.9477 19.3073 23.9308 19.3477C23.9095 19.397 23.8883 19.4463 23.8658 19.4957C23.8479 19.5349 23.8311 19.5741 23.8132 19.6122C23.7896 19.6616 23.7661 19.7109 23.7426 19.7602C23.7246 19.7984 23.7056 19.8354 23.6865 19.8735C23.6619 19.9228 23.635 19.9721 23.6092 20.0215C23.5901 20.0573 23.5711 20.0932 23.552 20.1291C23.524 20.1795 23.4949 20.23 23.4657 20.2804C23.4467 20.3141 23.4276 20.3477 23.4086 20.3802C23.3761 20.4351 23.3424 20.4901 23.3088 20.5439C23.292 20.5708 23.2752 20.5988 23.2584 20.6269C23.2113 20.7009 23.1631 20.7737 23.1138 20.8466C23.1093 20.8544 23.1037 20.8612 23.0992 20.869C23.0443 20.9486 22.9883 21.0271 22.9311 21.1056C22.9143 21.128 22.8964 21.1504 22.8795 21.1728C22.8392 21.2278 22.7977 21.2816 22.7563 21.3354C22.7338 21.3646 22.7103 21.3926 22.6868 21.4217C22.6498 21.4677 22.6117 21.5148 22.5736 21.5596C22.5478 21.5899 22.5209 21.6202 22.4951 21.6504C22.4581 21.693 22.4211 21.7356 22.383 21.7782C22.355 21.8096 22.327 21.8399 22.299 21.8702C22.262 21.9105 22.2239 21.9509 22.1858 21.9913C22.1566 22.0215 22.1264 22.0518 22.0961 22.0821C22.058 22.1202 22.0199 22.1594 21.9807 22.1975C21.9493 22.2278 21.919 22.257 21.8876 22.2872C21.8484 22.3242 21.8092 22.3612 21.77 22.3971C21.7375 22.4263 21.705 22.4554 21.6725 22.4845C21.6321 22.5204 21.5918 22.5552 21.5503 22.5899C21.5167 22.618 21.4842 22.646 21.4494 22.674C21.408 22.7076 21.3665 22.7424 21.3239 22.7749C21.2903 22.8018 21.2555 22.8287 21.2208 22.8556C21.1782 22.8881 21.1345 22.9207 21.0919 22.9532C21.0571 22.979 21.0213 23.0047 20.9865 23.0305C20.9428 23.0619 20.898 23.0933 20.8532 23.1236C20.8173 23.1482 20.7826 23.1729 20.7467 23.1965C20.7007 23.2267 20.6537 23.257 20.6077 23.2861C20.5718 23.3086 20.536 23.3321 20.5001 23.3545C20.4665 23.3758 20.4317 23.3949 20.397 23.4162C20.2345 21.295 19.7593 19.0988 19.005 16.9866C20.8733 16.5662 22.7697 16.5527 24.5607 16.9518C24.5607 16.9574 24.5607 16.9631 24.5596 16.9675H24.5585ZM18.4805 15.6435C18.2272 15.0437 17.9559 14.4574 17.6645 13.8901C19.5407 13.0369 21.2432 11.89 22.6554 10.5301C23.8165 11.9416 24.4924 13.6692 24.5966 15.5C22.6139 15.102 20.527 15.1513 18.4793 15.6435H18.4805ZM7.61893 13.9159C7.65143 13.7847 7.6873 13.6535 7.72652 13.5246C7.73325 13.501 7.7411 13.4764 7.74782 13.4528C7.78705 13.3262 7.82852 13.2006 7.87335 13.0761C7.87671 13.0672 7.87895 13.0593 7.88232 13.0504C7.88792 13.0347 7.89352 13.019 7.89913 13.0033C7.94508 12.8799 7.99327 12.7589 8.04371 12.6378C8.05155 12.6198 8.05828 12.603 8.06612 12.5851C8.06724 12.5817 8.06949 12.5784 8.07061 12.5739C8.12328 12.4517 8.17932 12.3295 8.23872 12.2095C8.24769 12.1905 8.25778 12.1714 8.26674 12.1512C8.32727 12.0301 8.39003 11.9113 8.45616 11.7936C8.46624 11.7745 8.47633 11.7566 8.48754 11.7387C8.55254 11.6243 8.62091 11.5111 8.69152 11.399C8.69937 11.3866 8.70721 11.3743 8.71506 11.362C8.71954 11.3541 8.72514 11.3463 8.73075 11.3384C8.80248 11.2263 8.87757 11.1164 8.95379 11.0088C8.96724 10.9897 8.98181 10.9696 8.99525 10.9505C9.07371 10.8418 9.15553 10.7341 9.23959 10.6287C9.25303 10.6119 9.2676 10.5951 9.28105 10.5783C9.36623 10.4729 9.45366 10.3686 9.54444 10.2666C9.55565 10.2532 9.56798 10.2408 9.57918 10.2274C9.67221 10.1231 9.7686 10.0222 9.86723 9.92244C9.87843 9.91123 9.88852 9.90114 9.89973 9.88993C9.99612 9.79464 10.0936 9.70046 10.1945 9.60965C10.2035 9.60181 10.2124 9.59284 10.2214 9.58499C10.227 9.58051 10.2315 9.57602 10.2371 9.57154C10.338 9.48185 10.4411 9.3944 10.5453 9.30807C10.5621 9.29462 10.5789 9.28005 10.5957 9.26659C10.7022 9.18139 10.8098 9.09954 10.9208 9.01882C10.9398 9.00537 10.9589 8.9908 10.979 8.97734C11.09 8.89774 11.2032 8.82039 11.3186 8.74639C11.3366 8.73518 11.3556 8.72285 11.3736 8.71164C11.4924 8.63652 11.6123 8.56365 11.7356 8.49414C11.7445 8.48966 11.7535 8.48405 11.7625 8.47957C13.2049 9.73522 14.5263 11.3384 15.6292 13.1692C12.9684 14.1053 10.1586 14.3766 7.61108 13.9439C7.61333 13.9338 7.61557 13.9248 7.61781 13.9147L7.61893 13.9159ZM16.4059 7.38536C16.4518 7.3876 16.4978 7.39209 16.5437 7.39433C16.6368 7.39993 16.7287 7.40666 16.8206 7.41451C16.8744 7.42011 16.9282 7.42684 16.982 7.43245C17.0649 7.44141 17.1478 7.4515 17.2308 7.46384C17.2879 7.47168 17.344 7.48177 17.4 7.49074C17.4796 7.5042 17.5581 7.51765 17.6365 7.53223C17.6937 7.54344 17.7508 7.55465 17.808 7.56698C17.8853 7.5838 17.9627 7.60061 18.0389 7.61967C18.096 7.63313 18.1521 7.6477 18.2081 7.66228C18.2843 7.68246 18.3605 7.70376 18.4368 7.72618C18.4917 7.74187 18.5466 7.75869 18.6015 7.77551C18.6788 7.80017 18.7562 7.82596 18.8335 7.85286C18.8851 7.8708 18.9366 7.88762 18.9882 7.90668C19.0711 7.93807 19.1541 7.97058 19.2359 8.00422C19.2796 8.02215 19.3233 8.03785 19.3659 8.05691C19.4836 8.10736 19.6001 8.16005 19.7156 8.21499C19.7268 8.22059 19.7391 8.2262 19.7503 8.2318C19.8669 8.28786 19.9823 8.34728 20.0955 8.40894C20.137 8.43136 20.1773 8.45491 20.2177 8.47845C20.295 8.52217 20.3724 8.56589 20.4497 8.61298C20.4968 8.64101 20.5416 8.67128 20.5875 8.70043C20.657 8.74415 20.7254 8.78787 20.7938 8.83384C20.842 8.86635 20.889 8.89999 20.9361 8.9325C21.0011 8.97847 21.0661 9.02443 21.13 9.07264C21.1771 9.10739 21.223 9.14327 21.2701 9.17915C21.3329 9.22848 21.3956 9.2778 21.4573 9.32825C21.5021 9.36525 21.5469 9.40337 21.5918 9.44149C21.6153 9.46167 21.6388 9.48409 21.6624 9.50427C20.3421 10.7756 18.7405 11.8429 16.973 12.6333C15.8926 10.798 14.6014 9.16681 13.1836 7.83829C14.0803 7.52886 15.0195 7.3719 15.9878 7.3719C16.1279 7.3719 16.2669 7.37527 16.4059 7.382V7.38536ZM7.38805 15.3543C8.25329 15.5 9.14432 15.5729 10.0477 15.5729C12.1301 15.5729 14.2809 15.1894 16.3364 14.4349C16.6076 14.9563 16.8632 15.4933 17.1008 16.0449C16.9809 16.0852 16.862 16.1256 16.7432 16.1693C13.7283 17.2848 11.2301 19.2703 9.61056 21.8074C8.17372 20.2277 7.36339 18.157 7.36339 16.0023C7.36339 15.7859 7.37236 15.5695 7.38805 15.3543ZM15.6068 24.6203C15.5653 24.618 15.5238 24.6147 15.4824 24.6124C15.3972 24.6079 15.3131 24.6023 15.2279 24.5945C15.1786 24.59 15.1304 24.5844 15.0811 24.5788C15.0049 24.5709 14.9276 24.562 14.8514 24.5519C14.7998 24.5452 14.7482 24.5373 14.6967 24.5295C14.6238 24.5183 14.551 24.507 14.4781 24.4936C14.4255 24.4846 14.3728 24.4745 14.3212 24.4633C14.2495 24.4487 14.1789 24.4342 14.1083 24.4185C14.0556 24.4073 14.004 24.3949 13.9525 24.3826C13.8819 24.3658 13.8113 24.3467 13.7418 24.3288C13.6902 24.3153 13.6398 24.3008 13.5894 24.2862C13.5187 24.266 13.4481 24.2436 13.3775 24.2212C13.3282 24.2055 13.28 24.1909 13.2307 24.1741C13.1579 24.1494 13.085 24.1225 13.0133 24.0967C12.9684 24.0799 12.9225 24.0642 12.8777 24.0463C12.7992 24.016 12.7207 23.9835 12.6423 23.9498C12.6053 23.9341 12.5683 23.9196 12.5313 23.9039C12.4193 23.8546 12.3083 23.803 12.1985 23.7492C12.1962 23.7492 12.194 23.7469 12.1917 23.7458C12.0785 23.6909 11.9676 23.6326 11.8566 23.572C11.8241 23.5541 11.7916 23.5339 11.758 23.516C11.6818 23.4734 11.6056 23.4296 11.5305 23.3848C11.4901 23.3601 11.4498 23.3344 11.4094 23.3086C11.3433 23.2671 11.2772 23.2256 11.2122 23.1819C11.1696 23.1539 11.127 23.1236 11.0855 23.0944C11.0239 23.0518 10.9634 23.0092 10.9028 22.9644C10.8591 22.933 10.8165 22.9005 10.7739 22.868C10.7414 22.8433 10.7089 22.8175 10.6764 22.7917C12.1211 20.4105 14.4322 18.5461 17.2398 17.5068C17.3675 17.4597 17.4975 17.416 17.6275 17.3723C18.4278 19.5809 18.903 21.887 19.0106 24.0833C18.8862 24.1303 18.7607 24.1741 18.6351 24.2144C18.6015 24.2256 18.5668 24.2346 18.5331 24.2447C18.4345 24.275 18.3348 24.3052 18.235 24.3321C18.1857 24.3456 18.1353 24.3568 18.0848 24.3703C17.9996 24.3916 17.9145 24.4117 17.8282 24.4308C17.7744 24.4431 17.7194 24.4532 17.6645 24.4644C17.5816 24.4813 17.4987 24.4958 17.4146 24.5104C17.3597 24.5194 17.3036 24.5283 17.2476 24.5362C17.1624 24.5485 17.0772 24.5597 16.9909 24.5698C16.9371 24.5754 16.8845 24.5822 16.8307 24.5878C16.7365 24.5967 16.6424 24.6035 16.5482 24.6091C16.5023 24.6124 16.4574 24.6158 16.4115 24.618C16.2714 24.6248 16.1302 24.6292 15.989 24.6292C15.8612 24.6292 15.7345 24.6259 15.6079 24.6203H15.6068Z" fill="white"/>
</svg>
