<svg width="33" height="32" viewBox="0 0 33 32" fill="none" xmlns="http://www.w3.org/2000/svg">
<rect x="0.97287" width="32" height="32" rx="3" fill="white"/>
<path d="M15.5062 2.79999C9.37287 3.46666 4.43953 8.39999 3.77287 14.4C3.1062 20.6667 6.7062 26.2667 12.1729 28.4C12.5729 28.5333 12.9729 28.2667 12.9729 27.7333V25.6C12.9729 25.6 12.4395 25.7333 11.7729 25.7333C9.9062 25.7333 9.1062 24.1333 8.97287 23.2C8.83953 22.6667 8.57287 22.2667 8.17287 21.8667C7.77287 21.7333 7.63953 21.7333 7.63953 21.6C7.63953 21.3333 8.03953 21.3333 8.17287 21.3333C8.97287 21.3333 9.63953 22.2667 9.9062 22.6667C10.5729 23.7333 11.3729 24 11.7729 24C12.3062 24 12.7062 23.8667 12.9729 23.7333C13.1062 22.8 13.5062 21.8667 14.3062 21.3333C11.2395 20.6667 8.97287 18.9333 8.97287 16C8.97287 14.5333 9.63953 13.0667 10.5729 12C10.4395 11.7333 10.3062 11.0667 10.3062 10.1333C10.3062 9.59999 10.3062 8.93332 10.5729 8.39999C10.5729 8.13332 10.8395 7.99999 10.9729 7.99999H11.1062C11.7729 8.13332 13.1062 8.53332 14.3062 9.73332C15.1062 9.46666 16.0395 9.33332 16.9729 9.33332C17.9062 9.33332 18.8395 9.46666 19.6395 9.73332C20.8395 8.53332 22.3062 8.13332 22.9729 7.99999H23.1062C23.3729 7.99999 23.5062 8.13332 23.6395 8.39999C23.6395 8.93332 23.6395 9.59999 23.6395 10.1333C23.6395 11.2 23.5062 11.7333 23.3729 12C24.3062 13.0667 24.9729 14.4 24.9729 16C24.9729 18.9333 22.7062 20.6667 19.6395 21.3333C20.4395 22 20.9729 23.2 20.9729 24.4V27.8667C20.9729 28.2667 21.3729 28.6667 21.9062 28.5333C26.8395 26.5333 30.3062 21.7333 30.3062 16.1333C30.3062 8.13332 23.5062 1.86666 15.5062 2.79999Z" fill="black"/>
</svg>
