<svg width="32" height="32" viewBox="0 0 32 32" fill="none" xmlns="http://www.w3.org/2000/svg">
<path d="M16.0223 0H15.9495C7.13562 0 -0.0094223 7.14713 -0.0094223 15.9636V16.0364C-0.0094223 24.8529 7.13562 32 15.9495 32H16.0223C24.8361 32 31.9812 24.8529 31.9812 16.0364V15.9636C31.9812 7.14713 24.8361 0 16.0223 0Z" fill="#007EBB"/>
<path d="M7.62009 10.6376C7.19868 10.2463 6.98911 9.76201 6.98911 9.18575C6.98911 8.6095 7.1998 8.10388 7.62009 7.71149C8.04151 7.32022 8.58397 7.12402 9.2486 7.12402C9.91322 7.12402 10.4344 7.32022 10.8547 7.71149C11.2761 8.10276 11.4857 8.59493 11.4857 9.18575C11.4857 9.77658 11.275 10.2463 10.8547 10.6376C10.4333 11.0289 9.89865 11.2251 9.2486 11.2251C8.59854 11.2251 8.04151 11.0289 7.62009 10.6376ZM11.1315 12.8821V24.878H7.34214V12.8821H11.1315Z" fill="#FEFFFC"/>
<path d="M23.7452 14.0661C24.5712 14.963 24.9837 16.194 24.9837 17.7613V24.6651H21.3849V18.2479C21.3849 17.4575 21.1798 16.8431 20.7707 16.4059C20.3616 15.9686 19.8102 15.7489 19.1198 15.7489C18.4294 15.7489 17.8779 15.9675 17.4688 16.4059C17.0597 16.8431 16.8546 17.4575 16.8546 18.2479V24.6651H13.2345V12.8475H16.8546V14.4148C17.2211 13.8923 17.7154 13.4798 18.3363 13.1759C18.9573 12.8721 19.6555 12.7208 20.4322 12.7208C21.8153 12.7208 22.9203 13.1692 23.7452 14.0661Z" fill="#FEFFFC"/>
</svg>
