<svg width="19" height="15" viewBox="0 0 19 15" fill="none" xmlns="http://www.w3.org/2000/svg">
<path d="M6.45806 14.3613C5.71828 14.3613 5.09892 14.2839 4.6 14.129C4.10108 13.9742 3.68817 13.8194 3.36129 13.6645C3.03441 13.5097 2.75054 13.4323 2.50968 13.4323C2.09677 13.4323 1.7957 13.6989 1.60645 14.2323H0.6C0.651613 13.7849 0.686021 13.3204 0.703226 12.8387C0.72043 12.3398 0.729032 11.7892 0.729032 11.1871C0.746237 10.5677 0.746237 9.85376 0.729032 9.04516H1.70968C1.98495 10.4731 2.49247 11.5484 3.23226 12.271C3.97204 12.9763 4.93548 13.329 6.12258 13.329C6.96559 13.329 7.61075 13.1484 8.05806 12.7871C8.52258 12.4258 8.75484 11.9269 8.75484 11.2903C8.75484 10.671 8.50538 10.1634 8.00645 9.76774C7.52473 9.37204 6.67312 9.00215 5.45161 8.65806C3.88602 8.19355 2.74194 7.6 2.01935 6.87742C1.29677 6.15484 0.935484 5.25161 0.935484 4.16774C0.935484 2.99785 1.32258 2.06882 2.09677 1.38065C2.87097 0.675269 3.91183 0.322581 5.21935 0.322581C5.90753 0.322581 6.48387 0.400001 6.94839 0.554839C7.43011 0.692473 7.83441 0.847312 8.16129 1.01935C8.48817 1.17419 8.78064 1.25161 9.03871 1.25161C9.21075 1.25161 9.35699 1.1914 9.47742 1.07097C9.59785 0.933333 9.70107 0.726882 9.7871 0.451613H10.7935C10.7591 0.830108 10.7333 1.22581 10.7161 1.63871C10.6989 2.03441 10.6817 2.49892 10.6645 3.03226C10.6645 3.54839 10.6731 4.19355 10.6903 4.96774H9.68387C9.46021 3.81505 8.9871 2.92043 8.26452 2.28387C7.54194 1.64731 6.67312 1.32903 5.65806 1.32903C4.95269 1.32903 4.40215 1.49247 4.00645 1.81936C3.61075 2.14624 3.4129 2.61075 3.4129 3.2129C3.4129 3.83226 3.67957 4.35699 4.2129 4.7871C4.74624 5.2 5.66667 5.5957 6.97419 5.97419C8.47097 6.3871 9.55484 6.92903 10.2258 7.6C10.8968 8.25376 11.2323 9.13118 11.2323 10.2323C11.2323 11.5226 10.8022 12.5376 9.94194 13.2774C9.09892 14 7.93763 14.3613 6.45806 14.3613ZM16.4905 14.3613C15.8368 14.3613 15.3034 14.1806 14.8905 13.8194C14.4776 13.4409 14.2712 12.9419 14.2712 12.3226C14.2712 11.7032 14.469 11.2129 14.8647 10.8516C15.2776 10.4731 15.8196 10.2839 16.4905 10.2839C17.1615 10.2839 17.7034 10.4731 18.1163 10.8516C18.5292 11.2301 18.7357 11.7204 18.7357 12.3226C18.7357 12.9419 18.5292 13.4409 18.1163 13.8194C17.7034 14.1806 17.1615 14.3613 16.4905 14.3613Z" fill="url(#paint0_linear_144_90)"/>
<defs>
<linearGradient id="paint0_linear_144_90" x1="4" y1="-3.88648e-07" x2="10.5" y2="11" gradientUnits="userSpaceOnUse">
<stop stop-color="#6A6293"/>
<stop offset="0.490385" stop-color="#74C9E1"/>
<stop offset="1" stop-color="#7A518C"/>
</linearGradient>
</defs>
</svg>
