<svg width="33" height="32" viewBox="0 0 33 32" fill="none" xmlns="http://www.w3.org/2000/svg">
<path d="M32.9706 16.0006C32.9706 24.0816 26.9823 30.7623 19.2029 31.8464C18.4755 31.9473 17.7313 32 16.9759 32C16.1039 32 15.2476 31.9305 14.4138 31.796C6.79804 30.5695 0.981171 23.9638 0.981171 16.0006C0.981171 7.16393 8.14299 0 16.977 0C25.811 0 32.9729 7.16393 32.9729 16.0006H32.9706Z" fill="#1C1C1B"/>
<path d="M7.46731 7.05762L14.8443 16.9234L7.42136 24.945H9.09245L15.5919 17.9223L20.8428 24.945H26.5285L18.7368 14.5242L25.6464 7.05762H23.9753L17.9904 13.5253L13.1542 7.05762H7.46842H7.46731ZM9.92406 8.2886H12.5355L24.0695 23.714H21.4581L9.92406 8.2886Z" fill="white"/>
</svg>
